<svg
  xmlns="http://www.w3.org/2000/svg"
  viewBox="0 0 960 540"
  role="img"
  aria-labelledby="title desc"
>
  <title id="title">Project secrets mounted as protected files</title>
  <desc id="desc">
    A secure project workspace with encrypted storage connected to read-only
    secret files.
  </desc>
  <defs>
    <linearGradient id="bg" x1="0" x2="1" y1="0" y2="1">
      <stop offset="0" stop-color="#eef6ff" />
      <stop offset="1" stop-color="#f8fbf6" />
    </linearGradient>
    <filter id="shadow" x="-20%" y="-20%" width="140%" height="140%">
      <feDropShadow
        dx="0"
        dy="12"
        stdDeviation="16"
        flood-color="#233142"
        flood-opacity="0.18"
      />
    </filter>
  </defs>
  <rect width="960" height="540" fill="url(#bg)" />
  <rect
    x="120"
    y="82"
    width="720"
    height="376"
    rx="28"
    fill="#ffffff"
    filter="url(#shadow)"
  />
  <rect x="120" y="82" width="720" height="58" rx="28" fill="#23424a" />
  <circle cx="158" cy="111" r="8" fill="#f25f5c" />
  <circle cx="184" cy="111" r="8" fill="#ffe066" />
  <circle cx="210" cy="111" r="8" fill="#70c1b3" />
  <text
    x="250"
    y="117"
    fill="#ffffff"
    font-family="Inter, Arial, sans-serif"
    font-size="24"
    font-weight="700"
  >
    Project environment
  </text>
  <rect
    x="168"
    y="184"
    width="236"
    height="206"
    rx="18"
    fill="#f4f7fb"
    stroke="#c9d7e3"
    stroke-width="2"
  />
  <path
    d="M236 268h100v74H236z"
    fill="#ffffff"
    stroke="#4f6f7a"
    stroke-width="8"
    stroke-linejoin="round"
  />
  <path
    d="M258 268v-34c0-46 56-46 56 0v34"
    fill="none"
    stroke="#4f6f7a"
    stroke-width="16"
    stroke-linecap="round"
  />
  <circle cx="286" cy="306" r="13" fill="#ffb703" />
  <path
    d="M286 316v20"
    stroke="#ffb703"
    stroke-width="10"
    stroke-linecap="round"
  />
  <text
    x="206"
    y="405"
    fill="#23424a"
    font-family="Inter, Arial, sans-serif"
    font-size="21"
    font-weight="700"
  >
    encrypted at rest
  </text>
  <path
    d="M430 286h112"
    stroke="#6b9080"
    stroke-width="9"
    stroke-linecap="round"
  />
  <path
    d="M512 256l36 30-36 30"
    fill="none"
    stroke="#6b9080"
    stroke-width="9"
    stroke-linecap="round"
    stroke-linejoin="round"
  />
  <rect
    x="570"
    y="170"
    width="224"
    height="234"
    rx="18"
    fill="#f7fbff"
    stroke="#b8ccd8"
    stroke-width="2"
  />
  <rect x="604" y="204" width="156" height="36" rx="8" fill="#dbeafe" />
  <rect x="604" y="260" width="156" height="36" rx="8" fill="#e7f5ec" />
  <rect x="604" y="316" width="156" height="36" rx="8" fill="#fff3bf" />
  <text
    x="626"
    y="228"
    fill="#1d4ed8"
    font-family="Inter, Arial, sans-serif"
    font-size="18"
    font-weight="700"
  >
    OPENAI_API_KEY
  </text>
  <text
    x="644"
    y="284"
    fill="#2d6a4f"
    font-family="Inter, Arial, sans-serif"
    font-size="18"
    font-weight="700"
  >
    HF_TOKEN
  </text>
  <text
    x="634"
    y="340"
    fill="#8a5a00"
    font-family="Inter, Arial, sans-serif"
    font-size="18"
    font-weight="700"
  >
    DATABASE_URL
  </text>
  <text
    x="601"
    y="390"
    fill="#425466"
    font-family="Inter, Arial, sans-serif"
    font-size="17"
  >
    /run/secrets/cocalc
  </text>
</svg>
