<svg
  xmlns="http://www.w3.org/2000/svg"
  viewBox="0 0 960 540"
  role="img"
  aria-labelledby="title desc"
>
  <title id="title">TimeTravel file history with diffs and restore</title>
  <desc id="desc">
    A code file, side-by-side diff, and timeline of live edits, snapshots, Git
    commits, backups, and restore points.
  </desc>
  <defs>
    <linearGradient id="page" x1="0" x2="1" y1="0" y2="1">
      <stop offset="0" stop-color="#f8fbff" />
      <stop offset="1" stop-color="#eef8f4" />
    </linearGradient>
    <linearGradient id="teal" x1="0" x2="1" y1="0" y2="1">
      <stop offset="0" stop-color="#19b7a6" />
      <stop offset="1" stop-color="#0b7892" />
    </linearGradient>
    <linearGradient id="blue" x1="0" x2="1" y1="0" y2="1">
      <stop offset="0" stop-color="#3b82f6" />
      <stop offset="1" stop-color="#1e3a8a" />
    </linearGradient>
    <filter id="shadow" x="-20%" y="-20%" width="140%" height="140%">
      <feDropShadow
        dx="0"
        dy="14"
        stdDeviation="18"
        flood-color="#22313f"
        flood-opacity="0.15"
      />
    </filter>
    <style>
      .label {
        fill: #22313f;
        font-family: Inter, Arial, sans-serif;
      }
      .muted {
        fill: #64748b;
        font-family: Inter, Arial, sans-serif;
      }
      .mono {
        font-family:
          ui-monospace, SFMono-Regular, Menlo, Monaco, Consolas, monospace;
      }
    </style>
  </defs>

  <rect width="960" height="540" fill="url(#page)" />
  <text x="62" y="48" class="label" font-size="29" font-weight="800">
    File history
  </text>
  <path
    d="M86 140a38 38 0 1 1 30-15"
    fill="none"
    stroke="#0f8ea3"
    stroke-width="10"
    stroke-linecap="round"
  />
  <path
    d="M122 98l1 30 28-7"
    fill="none"
    stroke="#0f8ea3"
    stroke-width="10"
    stroke-linecap="round"
    stroke-linejoin="round"
  />

  <g filter="url(#shadow)">
    <path
      d="M235 58h254l42 42v236a22 22 0 0 1-22 22H235a22 22 0 0 1-22-22V80a22 22 0 0 1 22-22z"
      fill="#ffffff"
      stroke="#c9d7e3"
      stroke-width="2"
    />
    <path d="M489 58v42h42" fill="none" stroke="#c9d7e3" stroke-width="2" />
    <rect x="236" y="116" width="260" height="196" rx="10" fill="#f8fafc" />
    <rect x="236" y="116" width="42" height="196" rx="10" fill="#eef2f7" />
    <text x="302" y="96" class="label" font-size="22" font-weight="800">
      analysis.py
    </text>
    <g class="mono" font-size="13">
      <text x="252" y="148" fill="#94a3b8">1</text>
      <text x="298" y="148" fill="#1d4ed8">import</text>
      <text x="352" y="148" fill="#1f2937">pandas as pd</text>
      <text x="252" y="175" fill="#94a3b8">2</text>
      <text x="298" y="175" fill="#1d4ed8">def</text>
      <text x="332" y="175" fill="#1f2937">load_data(path):</text>
      <text x="252" y="202" fill="#94a3b8">3</text>
      <text x="318" y="202" fill="#1f2937">df = pd.read_csv(path)</text>
      <text x="252" y="229" fill="#94a3b8">4</text>
      <text x="318" y="229" fill="#0f766e">df["value"] = fillna(0)</text>
      <text x="252" y="256" fill="#94a3b8">5</text>
      <text x="318" y="256" fill="#1d4ed8">return</text>
      <text x="374" y="256" fill="#1f2937">df</text>
      <text x="252" y="283" fill="#94a3b8">6</text>
      <text x="298" y="283" fill="#1d4ed8">def</text>
      <text x="332" y="283" fill="#1f2937">compute(df):</text>
    </g>
  </g>

  <g filter="url(#shadow)">
    <rect
      x="548"
      y="94"
      width="350"
      height="236"
      rx="18"
      fill="#ffffff"
      stroke="#c9d7e3"
      stroke-width="2"
    />
    <text x="574" y="132" class="label" font-size="20" font-weight="800">
      Changes from selected point
    </text>
    <rect x="572" y="156" width="144" height="146" rx="9" fill="#f8fafc" />
    <rect x="730" y="156" width="144" height="146" rx="9" fill="#f8fafc" />
    <rect x="572" y="156" width="144" height="34" rx="9" fill="#eef2f7" />
    <rect x="730" y="156" width="144" height="34" rx="9" fill="#eef2f7" />
    <text x="588" y="179" class="muted" font-size="13" font-weight="700">
      Previous
    </text>
    <text x="746" y="179" class="muted" font-size="13" font-weight="700">
      Current
    </text>
    <rect x="586" y="217" width="116" height="22" rx="6" fill="#fee2e2" />
    <rect x="744" y="217" width="116" height="22" rx="6" fill="#dcfce7" />
    <rect x="744" y="266" width="116" height="22" rx="6" fill="#dcfce7" />
    <g class="mono" font-size="12">
      <text x="586" y="211" fill="#334155">df = read_csv(path)</text>
      <text x="593" y="232" fill="#b91c1c">- dropna()</text>
      <text x="586" y="260" fill="#334155">return df</text>
      <text x="744" y="211" fill="#334155">df = read_csv(path)</text>
      <text x="751" y="232" fill="#166534">+ fillna(0)</text>
      <text x="751" y="281" fill="#166534">+ groupby(...)</text>
    </g>
  </g>

  <path
    d="M532 220h42"
    stroke="#8fb3bf"
    stroke-width="5"
    stroke-linecap="round"
    stroke-dasharray="1 14"
  />
  <path
    d="M780 331c0 34-35 37-83 37H513"
    fill="none"
    stroke="#0f8ea3"
    stroke-width="7"
    stroke-linecap="round"
  />
  <path
    d="M526 348l-22 20 22 20"
    fill="none"
    stroke="#0f8ea3"
    stroke-width="7"
    stroke-linecap="round"
    stroke-linejoin="round"
  />
  <rect
    x="783"
    y="346"
    width="94"
    height="36"
    rx="10"
    fill="#ecfeff"
    stroke="#0f8ea3"
    stroke-width="2"
  />
  <text
    x="807"
    y="370"
    class="label"
    font-size="16"
    font-weight="800"
    fill="#0f8ea3"
  >
    Restore
  </text>

  <line
    x1="92"
    y1="426"
    x2="860"
    y2="426"
    stroke="#0f8ea3"
    stroke-width="7"
    stroke-linecap="round"
  />
  <path d="M862 426l-34-18v36z" fill="#0f8ea3" />
  <path
    d="M74 426h-34"
    stroke="#8fd3dc"
    stroke-width="5"
    stroke-linecap="round"
    stroke-dasharray="1 14"
  />

  <g>
    <line
      x1="120"
      y1="391"
      x2="120"
      y2="426"
      stroke="#cbd5e1"
      stroke-width="4"
      stroke-dasharray="2 10"
    />
    <circle
      cx="120"
      cy="426"
      r="32"
      fill="#ffffff"
      stroke="#cbd5e1"
      stroke-width="3"
    />
    <circle cx="120" cy="426" r="24" fill="url(#teal)" />
    <path d="M108 434l21-21 9 9-21 21h-9z" fill="#ffffff" />
    <text x="81" y="494" class="label" font-size="16" font-weight="800">
      Live edit
    </text>
  </g>
  <g>
    <line
      x1="258"
      y1="371"
      x2="258"
      y2="426"
      stroke="#cbd5e1"
      stroke-width="4"
      stroke-dasharray="2 10"
    />
    <circle
      cx="258"
      cy="426"
      r="32"
      fill="#ffffff"
      stroke="#cbd5e1"
      stroke-width="3"
    />
    <circle cx="258" cy="426" r="24" fill="#3b82f6" />
    <path
      d="M240 430c0-11 9-20 20-20 8 0 15 5 18 12 8 1 14 8 14 16h-52z"
      fill="#ffffff"
    />
    <text x="224" y="494" class="label" font-size="16" font-weight="800">
      Autosave
    </text>
  </g>
  <g>
    <line
      x1="398"
      y1="363"
      x2="398"
      y2="426"
      stroke="#cbd5e1"
      stroke-width="4"
      stroke-dasharray="2 10"
    />
    <circle
      cx="398"
      cy="426"
      r="32"
      fill="#ffffff"
      stroke="#cbd5e1"
      stroke-width="3"
    />
    <circle cx="398" cy="426" r="24" fill="#f5b700" />
    <path d="M382 416h9l5-6h14l5 6h8v24h-41z" fill="#ffffff" />
    <circle cx="403" cy="428" r="8" fill="#f5b700" />
    <text x="365" y="494" class="label" font-size="16" font-weight="800">
      Snapshot
    </text>
  </g>
  <g>
    <line
      x1="505"
      y1="358"
      x2="505"
      y2="426"
      stroke="#93c5fd"
      stroke-width="5"
    />
    <circle
      cx="505"
      cy="426"
      r="42"
      fill="#e0f2fe"
      stroke="#60a5fa"
      stroke-width="4"
    />
    <circle cx="505" cy="426" r="29" fill="url(#blue)" />
    <path
      d="M492 419l13-13 13 13M505 407v36M492 433l13 13 13-13"
      fill="none"
      stroke="#ffffff"
      stroke-width="6"
      stroke-linecap="round"
      stroke-linejoin="round"
    />
    <rect x="461" y="472" width="88" height="24" rx="8" fill="#1e3a8a" />
    <text
      x="475"
      y="490"
      fill="#ffffff"
      font-family="Inter, Arial, sans-serif"
      font-size="14"
      font-weight="800"
    >
      Git commit
    </text>
  </g>
  <g>
    <line
      x1="638"
      y1="332"
      x2="638"
      y2="426"
      stroke="#cbd5e1"
      stroke-width="4"
      stroke-dasharray="2 10"
    />
    <circle
      cx="638"
      cy="426"
      r="32"
      fill="#ffffff"
      stroke="#cbd5e1"
      stroke-width="3"
    />
    <circle cx="638" cy="426" r="24" fill="#7c3aed" />
    <ellipse cx="638" cy="415" rx="16" ry="6" fill="#ffffff" />
    <path
      d="M622 415v22c0 3 7 6 16 6s16-3 16-6v-22"
      fill="none"
      stroke="#ffffff"
      stroke-width="5"
    />
    <text x="610" y="494" class="label" font-size="16" font-weight="800">
      Backup
    </text>
  </g>
  <g>
    <line
      x1="780"
      y1="386"
      x2="780"
      y2="426"
      stroke="#cbd5e1"
      stroke-width="4"
      stroke-dasharray="2 10"
    />
    <circle
      cx="780"
      cy="426"
      r="32"
      fill="#ffffff"
      stroke="#cbd5e1"
      stroke-width="3"
    />
    <circle cx="780" cy="426" r="24" fill="url(#teal)" />
    <path
      d="M794 420a17 17 0 1 1-7-10M789 396v17h17"
      fill="none"
      stroke="#ffffff"
      stroke-width="6"
      stroke-linecap="round"
      stroke-linejoin="round"
    />
    <text x="738" y="494" class="label" font-size="16" font-weight="800">
      Restore point
    </text>
  </g>
</svg>
